<mxfile host="app.diagrams.net" modified="2020-06-26T08:49:31.449Z" agent="5.0 (X11; Linux x86_64) AppleWebKit/537.36 (KHTML, like Gecko) Chrome/83.0.4103.97 Safari/537.36" etag="3fVAbBfHRIxRYvCGejEw" version="13.3.4" type="github">
  <diagram id="YAOAgilgRUe9FEhJ-yfW" name="Page-1">
    <mxGraphModel dx="2619" dy="829" grid="1" gridSize="10" guides="1" tooltips="1" connect="1" arrows="1" fold="1" page="1" pageScale="1" pageWidth="827" pageHeight="1169" math="0" shadow="0">
      <root>
        <mxCell id="0" />
        <mxCell id="1" parent="0" />
        <mxCell id="k4Kpz9zn1iOb8AH_RJQ_-9" value="" style="ellipse;shape=cloud;whiteSpace=wrap;html=1;" vertex="1" parent="1">
          <mxGeometry x="690" y="940" width="700" height="800" as="geometry" />
        </mxCell>
        <mxCell id="k4Kpz9zn1iOb8AH_RJQ_-10" value="" style="ellipse;shape=cloud;whiteSpace=wrap;html=1;" vertex="1" parent="1">
          <mxGeometry x="-215" y="470" width="905" height="700" as="geometry" />
        </mxCell>
        <mxCell id="k4Kpz9zn1iOb8AH_RJQ_-11" value="" style="whiteSpace=wrap;html=1;aspect=fixed;" vertex="1" parent="1">
          <mxGeometry x="30" y="655" width="360" height="360" as="geometry" />
        </mxCell>
        <mxCell id="k4Kpz9zn1iOb8AH_RJQ_-12" value="MongoDB" style="shape=cylinder;whiteSpace=wrap;html=1;boundedLbl=1;backgroundOutline=1;" vertex="1" parent="1">
          <mxGeometry x="60" y="690" width="60" height="80" as="geometry" />
        </mxCell>
        <mxCell id="k4Kpz9zn1iOb8AH_RJQ_-51" value="" style="edgeStyle=orthogonalEdgeStyle;rounded=0;orthogonalLoop=1;jettySize=auto;html=1;" edge="1" parent="1" source="k4Kpz9zn1iOb8AH_RJQ_-13" target="k4Kpz9zn1iOb8AH_RJQ_-18">
          <mxGeometry relative="1" as="geometry" />
        </mxCell>
        <mxCell id="k4Kpz9zn1iOb8AH_RJQ_-13" value="GraphQL&lt;br&gt;Server" style="whiteSpace=wrap;html=1;aspect=fixed;" vertex="1" parent="1">
          <mxGeometry x="156" y="850" width="80" height="80" as="geometry" />
        </mxCell>
        <mxCell id="k4Kpz9zn1iOb8AH_RJQ_-14" value="Prometheus" style="whiteSpace=wrap;html=1;aspect=fixed;" vertex="1" parent="1">
          <mxGeometry x="190" y="690" width="80" height="80" as="geometry" />
        </mxCell>
        <mxCell id="k4Kpz9zn1iOb8AH_RJQ_-30" value="" style="edgeStyle=orthogonalEdgeStyle;rounded=0;orthogonalLoop=1;jettySize=auto;html=1;" edge="1" parent="1" source="k4Kpz9zn1iOb8AH_RJQ_-15" target="k4Kpz9zn1iOb8AH_RJQ_-11">
          <mxGeometry relative="1" as="geometry" />
        </mxCell>
        <mxCell id="k4Kpz9zn1iOb8AH_RJQ_-15" value="Frontend" style="whiteSpace=wrap;html=1;aspect=fixed;" vertex="1" parent="1">
          <mxGeometry x="510" y="795" width="80" height="80" as="geometry" />
        </mxCell>
        <mxCell id="k4Kpz9zn1iOb8AH_RJQ_-37" value="" style="edgeStyle=orthogonalEdgeStyle;rounded=0;orthogonalLoop=1;jettySize=auto;html=1;" edge="1" parent="1" source="k4Kpz9zn1iOb8AH_RJQ_-18" target="k4Kpz9zn1iOb8AH_RJQ_-14">
          <mxGeometry relative="1" as="geometry">
            <mxPoint x="234" y="835" as="targetPoint" />
          </mxGeometry>
        </mxCell>
        <mxCell id="k4Kpz9zn1iOb8AH_RJQ_-18" value="N&lt;br&gt;G&lt;br&gt;I&lt;br&gt;N&lt;br&gt;X" style="rounded=0;whiteSpace=wrap;html=1;" vertex="1" parent="1">
          <mxGeometry x="314" y="690" width="50" height="290" as="geometry" />
        </mxCell>
        <mxCell id="k4Kpz9zn1iOb8AH_RJQ_-25" value="" style="ellipse;shape=cloud;whiteSpace=wrap;html=1;" vertex="1" parent="1">
          <mxGeometry x="-50" y="1200" width="492" height="430" as="geometry" />
        </mxCell>
        <mxCell id="k4Kpz9zn1iOb8AH_RJQ_-26" value="" style="whiteSpace=wrap;html=1;aspect=fixed;" vertex="1" parent="1">
          <mxGeometry x="108" y="1310" width="204" height="204" as="geometry" />
        </mxCell>
        <mxCell id="k4Kpz9zn1iOb8AH_RJQ_-27" value="Authenticator" style="whiteSpace=wrap;html=1;aspect=fixed;" vertex="1" parent="1">
          <mxGeometry x="220" y="1360" width="80" height="80" as="geometry" />
        </mxCell>
        <mxCell id="k4Kpz9zn1iOb8AH_RJQ_-28" value="MySQL" style="shape=cylinder;whiteSpace=wrap;html=1;boundedLbl=1;backgroundOutline=1;" vertex="1" parent="1">
          <mxGeometry x="120" y="1360" width="60" height="80" as="geometry" />
        </mxCell>
        <mxCell id="k4Kpz9zn1iOb8AH_RJQ_-29" value="" style="endArrow=classic;html=1;" edge="1" parent="1" source="k4Kpz9zn1iOb8AH_RJQ_-27">
          <mxGeometry width="50" height="50" relative="1" as="geometry">
            <mxPoint x="130" y="1450" as="sourcePoint" />
            <mxPoint x="180" y="1400" as="targetPoint" />
          </mxGeometry>
        </mxCell>
        <mxCell id="k4Kpz9zn1iOb8AH_RJQ_-31" value="" style="whiteSpace=wrap;html=1;aspect=fixed;" vertex="1" parent="1">
          <mxGeometry x="906" y="1190" width="335" height="335" as="geometry" />
        </mxCell>
        <mxCell id="k4Kpz9zn1iOb8AH_RJQ_-32" value="IGL" style="whiteSpace=wrap;html=1;aspect=fixed;" vertex="1" parent="1">
          <mxGeometry x="1030" y="1250" width="80" height="80" as="geometry" />
        </mxCell>
        <mxCell id="k4Kpz9zn1iOb8AH_RJQ_-44" value="" style="edgeStyle=orthogonalEdgeStyle;rounded=0;orthogonalLoop=1;jettySize=auto;html=1;" edge="1" parent="1" source="k4Kpz9zn1iOb8AH_RJQ_-33" target="k4Kpz9zn1iOb8AH_RJQ_-43">
          <mxGeometry relative="1" as="geometry" />
        </mxCell>
        <mxCell id="k4Kpz9zn1iOb8AH_RJQ_-33" value="Litmus agent" style="whiteSpace=wrap;html=1;aspect=fixed;" vertex="1" parent="1">
          <mxGeometry x="1030" y="1372" width="80" height="80" as="geometry" />
        </mxCell>
        <mxCell id="k4Kpz9zn1iOb8AH_RJQ_-43" value="Chaos Exporter" style="whiteSpace=wrap;html=1;aspect=fixed;" vertex="1" parent="1">
          <mxGeometry x="1030" y="1580" width="80" height="80" as="geometry" />
        </mxCell>
        <mxCell id="k4Kpz9zn1iOb8AH_RJQ_-35" value="" style="endArrow=classic;html=1;entryX=1;entryY=0.5;entryDx=0;entryDy=0;" edge="1" parent="1" source="k4Kpz9zn1iOb8AH_RJQ_-43" target="k4Kpz9zn1iOb8AH_RJQ_-11">
          <mxGeometry width="50" height="50" relative="1" as="geometry">
            <mxPoint x="960" y="1110" as="sourcePoint" />
            <mxPoint x="1010" y="1060" as="targetPoint" />
          </mxGeometry>
        </mxCell>
        <mxCell id="k4Kpz9zn1iOb8AH_RJQ_-39" value="" style="endArrow=classic;startArrow=classic;html=1;" edge="1" parent="1" target="k4Kpz9zn1iOb8AH_RJQ_-32">
          <mxGeometry width="50" height="50" relative="1" as="geometry">
            <mxPoint x="390" y="840" as="sourcePoint" />
            <mxPoint x="440" y="790" as="targetPoint" />
          </mxGeometry>
        </mxCell>
        <mxCell id="k4Kpz9zn1iOb8AH_RJQ_-47" value="" style="endArrow=classic;startArrow=classic;html=1;" edge="1" parent="1" source="k4Kpz9zn1iOb8AH_RJQ_-13">
          <mxGeometry width="50" height="50" relative="1" as="geometry">
            <mxPoint x="110" y="800" as="sourcePoint" />
            <mxPoint x="110" y="760" as="targetPoint" />
            <Array as="points">
              <mxPoint x="110" y="760" />
            </Array>
          </mxGeometry>
        </mxCell>
        <mxCell id="k4Kpz9zn1iOb8AH_RJQ_-50" value="" style="endArrow=classic;html=1;entryX=0.894;entryY=-0.019;entryDx=0;entryDy=0;entryPerimeter=0;" edge="1" parent="1" source="k4Kpz9zn1iOb8AH_RJQ_-14" target="k4Kpz9zn1iOb8AH_RJQ_-13">
          <mxGeometry width="50" height="50" relative="1" as="geometry">
            <mxPoint x="200" y="840" as="sourcePoint" />
            <mxPoint x="250" y="790" as="targetPoint" />
          </mxGeometry>
        </mxCell>
        <mxCell id="k4Kpz9zn1iOb8AH_RJQ_-53" value="" style="endArrow=classic;startArrow=classic;html=1;entryX=0;entryY=0.5;entryDx=0;entryDy=0;exitX=0.994;exitY=0.413;exitDx=0;exitDy=0;exitPerimeter=0;" edge="1" parent="1" source="k4Kpz9zn1iOb8AH_RJQ_-27" target="k4Kpz9zn1iOb8AH_RJQ_-15">
          <mxGeometry width="50" height="50" relative="1" as="geometry">
            <mxPoint x="290" y="1400" as="sourcePoint" />
            <mxPoint x="340" y="1350" as="targetPoint" />
          </mxGeometry>
        </mxCell>
        <mxCell id="k4Kpz9zn1iOb8AH_RJQ_-54" value="" style="endArrow=classic;startArrow=classic;html=1;exitX=0.5;exitY=0;exitDx=0;exitDy=0;" edge="1" parent="1" source="k4Kpz9zn1iOb8AH_RJQ_-33" target="k4Kpz9zn1iOb8AH_RJQ_-32">
          <mxGeometry width="50" height="50" relative="1" as="geometry">
            <mxPoint x="1050" y="1380" as="sourcePoint" />
            <mxPoint x="1100" y="1330" as="targetPoint" />
          </mxGeometry>
        </mxCell>
        <mxCell id="k4Kpz9zn1iOb8AH_RJQ_-55" value="Text" style="text;html=1;strokeColor=none;fillColor=none;align=center;verticalAlign=middle;whiteSpace=wrap;rounded=0;" vertex="1" parent="1">
          <mxGeometry x="218" y="1080" width="40" height="20" as="geometry" />
        </mxCell>
      </root>
    </mxGraphModel>
  </diagram>
</mxfile>
